<?xml version="1.0" encoding="utf-8"?>
<!-- Generator: Adobe Illustrator 19.2.0, SVG Export Plug-In . SVG Version: 6.00 Build 0)  -->
<svg version="1.1" id="Layer_1" xmlns="http://www.w3.org/2000/svg" xmlns:xlink="http://www.w3.org/1999/xlink" x="0px" y="0px"
	 viewBox="0 0 491.5 491.5" style="enable-background:new 0 0 491.5 491.5;" xml:space="preserve">
<style type="text/css">
	.st0{fill:none;stroke:#000000;stroke-width:6;stroke-miterlimit:10;}
	.st1{fill:#FFFFFF;stroke:#000000;stroke-miterlimit:10;}
</style>
<g>
	<path class="st0" d="M275,188.5c-0.1,0.1-0.1,0.1-0.2,0.2c-3,2.6-4.7,7-5,13.7l0,0v33.8h45.8c2,0,3.6,1.6,3.6,3.6V295
		c0,2-1.6,3.6-3.6,3.6h-45.8v153c105.9-12.4,188-102.4,188-211.6c0-117.6-95.4-213-213-213s-213,95.4-213,213
		c0,102.8,72.8,188.5,169.6,208.6v-150h-40.6c-2,0-3.6-1.6-3.6-3.6v-55.3c0-2,1.6-3.6,3.6-3.6l0,0h40.6v-51.7c0-0.2,0-0.3,0-0.5
		c0.8-15.9,4-30.3,11.5-40.8c7.7-10.9,19.6-17.7,37.7-17.7h65.1c2,0,3.6,1.6,3.6,3.6v52.1c0,2-1.6,3.6-3.6,3.6H290
		C283.2,184.8,278.2,185.8,275,188.5"/>
</g>
<g id="Layer_x0020_1_2_">
	<path class="st1" d="M-393.3-66.1h30.3v-38.5c0-0.1,0-0.2,0-0.3c0.6-11.8,3-22.5,8.5-30.4c5.7-8.1,14.6-13.2,28.1-13.2h48.5
		c1.5,0,2.7,1.2,2.7,2.7v38.8c0,1.5-1.2,2.7-2.7,2.7H-297c-4.9,0-8.6,0.8-11,2.7l-1.7-2.1l1.7,2.1c-0.1,0-0.1,0.1-0.2,0.1
		c-2.2,1.9-3.5,5.2-3.8,10.2l0,0v25.1h34.1c1.5,0,2.7,1.2,2.7,2.7v41.2c0,1.5-1.2,2.7-2.7,2.7H-312v120.9c0,1.5-1.2,2.7-2.7,2.7
		h-45.6c-1.5,0-2.7-1.2-2.7-2.7V-19.5h-30.3c-1.5,0-2.7-1.2-2.7-2.7v-41.2C-396-64.9-394.8-66.1-393.3-66.1L-393.3-66.1z
		 M-360.3-60.7h-30.3v35.8h30.3c1.5,0,2.7,1.2,2.7,2.7V98.7h40.2V-22.2c0-1.5,1.2-2.7,2.7-2.7h34.1v-35.8h-34.1
		c-1.5,0-2.7-1.2-2.7-2.7v-27.8l0,0v-0.1l0,0c0.3-6.7,2.2-11.2,5.7-14.2c0.1-0.1,0.1-0.1,0.2-0.2l0,0c3.5-2.9,8.3-4,14.5-4h16.5
		v-33.4h-45.8c-11.5,0-18.9,4.1-23.7,10.9c-4.9,6.9-7,16.7-7.6,27.6v0.1v41.2C-357.6-61.9-358.8-60.7-360.3-60.7L-360.3-60.7z"/>
</g>
</svg>
