<?xml version="1.0" encoding="utf-8"?>
<!-- Generator: Adobe Illustrator 19.2.0, SVG Export Plug-In . SVG Version: 6.00 Build 0)  -->
<svg version="1.1" id="Layer_1" xmlns="http://www.w3.org/2000/svg" xmlns:xlink="http://www.w3.org/1999/xlink" x="0px" y="0px"
	 viewBox="0 0 140 140" style="enable-background:new 0 0 140 140;" xml:space="preserve">
<style type="text/css">
	.st0{fill:#062F49;}
	.st1{fill:none;stroke:#FFFFFF;stroke-width:0.5;stroke-miterlimit:10;}
	.st2{fill:#CC3533;}
	.st3{fill:#EF3A2F;}
	.st4{fill:#FFFFFF;}
</style>
<g>
	<g>
		<circle class="st0" cx="70.4" cy="70.1" r="51.3"/>
		<circle class="st0" cx="70.4" cy="70.1" r="48.6"/>
		<path class="st0" d="M70.4,9.8c-33.3,0-60.3,27-60.3,60.3s27,60.3,60.3,60.3s60.3-27,60.3-60.3S103.6,9.8,70.4,9.8z M70.4,120.4
			c-27.8,0-50.3-22.5-50.3-50.3s22.5-50.3,50.3-50.3s50.3,22.5,50.3,50.3S98.1,120.4,70.4,120.4z"/>
		<path class="st0" d="M70.4,5.6C34.7,5.6,5.8,34.5,5.8,70.1s28.9,64.5,64.5,64.5s64.5-28.9,64.5-64.5S106,5.6,70.4,5.6z M70.4,124
			c-29.7,0-53.9-24.1-53.9-53.9s24.1-53.9,53.9-53.9s53.9,24.1,53.9,53.9S100.1,124,70.4,124z"/>
		<path class="st0" d="M70.4,1C32.2,1,1.3,31.9,1.3,70.1s30.9,69.1,69.1,69.1s69.1-30.9,69.1-69.1S108.5,1,70.4,1z M70.4,127.8
			c-31.9,0-57.7-25.8-57.7-57.7s25.8-57.7,57.7-57.7S128,38.2,128,70.1S102.2,127.8,70.4,127.8z"/>
	</g>
	<g>
		<circle class="st0" cx="70.4" cy="70.1" r="57.2"/>
		<circle class="st1" cx="70.4" cy="70.1" r="53.9"/>
		<path class="st2" d="M70.4,3.1c-37,0-67,30-67,67s30,67,67,67s67-30,67-67S107.4,3.1,70.4,3.1z M70.4,126
			c-30.9,0-55.9-25-55.9-55.9s25-55.9,55.9-55.9s55.9,25,55.9,55.9S101.3,126,70.4,126z"/>
		<path class="st3" d="M70.4,2C32.8,2,2.3,32.5,2.3,70.1s30.5,68.1,68.1,68.1s68.1-30.5,68.1-68.1S108,2,70.4,2z M70.4,129.8
			c-32.9,0-59.7-26.7-59.7-59.7s26.7-59.7,59.7-59.7S130,37.2,130,70.1S103.3,129.8,70.4,129.8z"/>
	</g>
</g>
<g>
	<path class="st4" d="M15.9,70.2 M40.9,47.6c0.1-0.4,0.1-0.6,0.1-0.8c1.2-3.7,2.5-7.3,3.7-11c0.3-1,0.3-1.8-0.6-2.4
		c-1.4-0.8-2.7-1.6-4.2-2.3c-1.3-0.6-1.9-0.3-2.5,1.1c-0.4,0.9-0.6,1.8-0.9,2.7c-1.3,4.2-2.5,8.4-3.9,12.6c-0.2,0.7-0.2,1.5-1.2,1.8
		c-1.5,0.4-1.9,1-1.2,2.4c0.7,1.5,0.4,2.9,0,4.4c-0.6,2.4-1.2,4.8-1.6,7.2c-0.1,0.6,0.2,1.4,0.7,1.8c1.2,1.1,2.7,1.8,4.4,2
		c0.7,0.1,1.1-0.2,1.3-0.9c0.9-3.2,1.9-6.4,2.8-9.6c0.3-0.9,0.6-1.7,1.8-1.8c1.3-0.1,2.5-0.4,3.8-0.7c0.2,0,0.5,0,0.8,0
		C44,55,43.8,55.5,43.7,56c-0.6,2.4-1.2,4.8-1.7,7.2c-0.2,1,0.1,2,1,2.6c1,0.6,2.1,1.1,3.2,1.4c1.5,0.4,1.8,0.1,2.2-1.4
		c0.8-2.8,1.6-5.5,2.5-8.3c0.8-2.7,1.7-5.5,2.6-8.2c0.8-2.6,1.7-5.1,2.5-7.6c0.7-2.2,1.5-4.4,2.3-6.7c0.3-0.8,0.1-1.5-0.6-2.1
		c-1.3-1.1-2.9-1.9-4.5-2.4c-0.9-0.2-1.6,0.1-1.9,0.9c-0.8,2.3-1.6,4.6-2.3,7c-0.9,2.7-1.7,5.4-2.6,8.1c-0.1,0.2-0.4,0.6-0.6,0.6
		C44.2,47.3,42.6,47.5,40.9,47.6z M111.1,44c0-0.5,0-1-0.1-1.5c-0.1-0.6-0.3-1.2-0.5-1.8c-1.5-4-3.1-5.4-7.1-5.4
		c-4.1,0-7.9,1.2-11.5,3.2c-1.1,0.6-1.3,1.1-0.9,2.3c0.1,0.2,0.2,0.4,0.3,0.7c0.2,0.9,1,1.6,0.7,2.7c-1,3.2-2,6.4-2.9,9.7
		c-0.9,3.2-1.7,6.4-2.5,9.6c-0.3,1.3,0,2,1.2,2.7c0.8,0.4,1.7,0.8,2.5,1c0.9,0.3,1.4,0,1.7-0.9c0.8-2.6,1.5-5.2,2.3-7.7
		c0.1-0.4,0.5-0.7,0.8-0.9c1-0.5,2.2-0.7,3.2-1.2c3.9-1.6,7.5-3.7,10.3-6.8C110,48.1,111.3,46.3,111.1,44z M89.6,43.4
		c-0.2-0.7-0.5-2.2-1-3.6c-1-2.5-2.7-4.2-5.6-4.4c-4.4-0.2-8.4,1-12.2,2.9c-1.7,0.8-1.7,1.1-1.1,2.8c0.1,0.3,0.3,0.6,0.4,0.9
		c0.4,0.8,0.7,1.5,0.3,2.5c-0.5,1.2-0.8,2.6-1.2,3.9c-0.8,2.8-1.7,5.7-2.5,8.5c-0.6,2.3-1.1,4.6-1.7,6.8c-0.2,0.8,0.1,1.6,0.8,2
		c1,0.6,2.2,1,3.3,1.4c0.5,0.2,1-0.1,1.2-0.7c0.1-0.5,0.3-1.1,0.5-1.6c0.7-2.2,1.3-4.4,2-6.5c0.1-0.3,0.4-0.6,0.7-0.8
		c1.9-0.8,3.9-1.4,5.7-2.4c3.3-1.6,6.3-3.6,8.5-6.5C88.8,47.5,89.6,46,89.6,43.4z M41.9,80.6c0,0.2,0,0.4-0.1,0.5
		c-1,3.1-2,6.1-2.8,9.2c-1.3,4.7-2.5,9.5-3.7,14.3c-0.4,1.7-0.1,2.6,1.5,3.5c0.9,0.5,1.8,0.8,2.8,1.2c1.2,0.4,1.6,0.1,2-1.1
		c0.4-1.3,0.8-2.7,1.2-4c1.2-3.9,2.3-7.9,3.5-11.8c1.2-3.9,2.6-7.8,3.8-11.7c0.3-0.9,0.7-1.4,1.7-1.4c1.6-0.1,3.2-0.3,4.7-0.4
		c1.3-0.2,1.5-0.3,1.3-1.7c-0.1-0.9-0.4-1.8-0.8-2.7c-0.9-1.9-1.5-2.2-3.6-2c-3.4,0.3-6.8,0.5-10.2,0.8c-2.5,0.3-5,0.8-7.5,1.2
		c-1.4,0.3-1.6,0.8-1.2,2.1c0.3,1,0.6,1.9,1,2.9c0.7,1.6,1.2,1.9,2.9,1.7C39.7,81,40.7,80.8,41.9,80.6z M60.9,101.7
		c0.4-1.1,0.7-2.2,1-3.2c0.2-0.7,0.6-1.1,1.4-1.2c2.1-0.3,4.2-0.8,6.3-1.3c1.4-0.3,1.6-0.6,1.4-2c-0.1-0.5-0.2-0.9-0.3-1.4
		c-0.4-2.1-1-2.5-3.1-2.3c-0.9,0.1-1.8,0.2-2.8,0.3c0.1-0.3,0.1-0.4,0.1-0.6c0.6-1.6,1.2-3.2,1.7-4.8c0.3-0.9,0.7-1.2,1.6-1.3
		c2.2-0.2,4.3-0.5,6.5-0.8c0.8-0.1,1.3-0.6,1.2-1.5c-0.1-0.8-0.2-1.5-0.4-2.3c-0.4-1.6-1-2.1-2.7-1.9c-1.3,0.1-2.5,0.1-3.8,0.3
		c-3.2,0.5-6.5,1.1-9.7,1.6c-0.7,0.1-0.9,0.6-0.7,1.2c0.3,0.9,0.6,1.9,0.9,2.8c0.1,0.3,0.1,0.7,0.1,1c-1.1,3.4-2.2,6.7-3.2,10.1
		c-0.9,2.8-1.7,5.7-2.4,8.6c-0.2,0.8,0,1.8,0.3,2.5c0.5,0.9,1.4,1.7,2.1,2.5c0.9,1,2,1,3.2,0.6c1-0.3,2-0.5,3.1-0.7
		c1.8-0.4,3.6-0.8,5.4-1.3c1-0.3,1.3-0.6,1.1-1.7c-0.2-0.9-0.4-1.9-0.8-2.8c-0.4-1.1-1-1.3-2.1-1.2
		C64.7,101.3,62.9,101.5,60.9,101.7z M79.4,101.7c0.4-1.1,0.7-2.2,1-3.2c0.2-0.7,0.6-1.1,1.4-1.2c2.1-0.3,4.2-0.8,6.3-1.3
		c1.4-0.3,1.6-0.6,1.4-2c-0.1-0.5-0.2-0.9-0.3-1.4c-0.4-2.1-1-2.5-3.1-2.3c-0.9,0.1-1.8,0.2-2.8,0.3c0.1-0.3,0.1-0.4,0.1-0.6
		c0.6-1.6,1.2-3.2,1.7-4.8c0.3-0.9,0.7-1.2,1.6-1.3c2.2-0.2,4.3-0.5,6.5-0.8c0.8-0.1,1.3-0.6,1.2-1.5c-0.1-0.8-0.2-1.5-0.4-2.3
		c-0.4-1.6-1-2.1-2.7-1.9c-1.3,0.1-2.5,0.1-3.8,0.3c-3.2,0.5-6.5,1.1-9.7,1.6c-0.7,0.1-0.9,0.6-0.7,1.2c0.3,0.9,0.6,1.9,0.9,2.8
		c0.1,0.3,0.1,0.7,0.1,1c-1.1,3.4-2.2,6.7-3.2,10.1c-0.9,2.8-1.7,5.7-2.4,8.6c-0.2,0.8,0,1.8,0.3,2.5c0.5,0.9,1.4,1.7,2.1,2.5
		c0.9,1,2,1,3.2,0.6c1-0.3,2-0.5,3.1-0.7c1.8-0.4,3.6-0.8,5.4-1.3c1-0.3,1.3-0.6,1.1-1.7c-0.2-0.9-0.4-1.9-0.8-2.8
		c-0.4-1.1-1-1.3-2.1-1.2C83.2,101.3,81.4,101.5,79.4,101.7z M53.8,63.8c0,1,0.4,1.7,1.2,2.1c0.8,0.4,1.6,0.8,2.4,1.1
		c1.3,0.5,1.8,0.1,2.1-1.2c0.2-1,0.5-1.9,0.8-2.8c0.7-2.2,1.3-4.4,2-6.6c0.8-2.6,1.6-5.2,2.4-7.8c0.9-2.9,2-5.7,2.9-8.6
		c0.3-0.8,0.1-1.5-0.6-2c-1.1-0.7-2.2-1.4-3.3-1.9c-1.4-0.6-2.1-0.2-2.6,1.3c-0.6,2-1.3,3.9-1.9,5.9c-0.7,2.2-1.4,4.4-2,6.7
		c-0.8,3-1.6,6-2.4,9C54.5,60.6,54.2,62.2,53.8,63.8z M97.9,101.3c0.9,0.2,1.1-0.4,1.4-1.1c0.8-2.3,1.5-4.7,2.4-7
		c1.6-4.4,3.4-8.8,5-13.2c0.4-0.9,0.2-1.8-0.7-2.3c-1.1-0.7-2.2-1.2-3.3-1.7c-1.2-0.5-1.8-0.2-2.2,1c-0.4,1.2-0.8,2.4-1.2,3.6
		c-1,3.1-2.1,6.1-3.1,9.2c-0.8,2.6-1.6,5.3-2.3,7.9c-0.2,0.8-0.3,1.7,0.5,2.1 M94.9,102.3c-2.2-0.3-3.8,2.2-3.9,4.2
		c0,1.9,1.4,3.4,3.3,3.4c2.2,0,3.9-2,3.9-4.5C98.2,103.5,96.9,102.3,94.9,102.3z"/>
	<path class="st4" d="M40.9,47.6c1.7-0.2,3.3-0.3,5-0.5c0.2,0,0.5-0.4,0.6-0.6c0.9-2.7,1.7-5.4,2.6-8.1c0.7-2.3,1.5-4.6,2.3-7
		c0.3-0.8,1-1.2,1.9-0.9c1.7,0.5,3.2,1.2,4.5,2.4c0.7,0.6,0.9,1.3,0.6,2.1c-0.7,2.2-1.5,4.4-2.3,6.7c-0.9,2.5-1.7,5.1-2.5,7.6
		c-0.9,2.7-1.7,5.5-2.6,8.2c-0.8,2.7-1.7,5.5-2.5,8.3c-0.4,1.5-0.7,1.8-2.2,1.4c-1.1-0.3-2.2-0.8-3.2-1.4c-1-0.5-1.3-1.5-1-2.6
		c0.5-2.4,1.1-4.8,1.7-7.2c0.1-0.5,0.3-1,0.4-1.6c-0.3,0-0.5-0.1-0.8,0c-1.3,0.2-2.5,0.5-3.8,0.7c-1.1,0.1-1.5,0.8-1.8,1.8
		c-0.9,3.2-1.9,6.4-2.8,9.6c-0.2,0.7-0.6,0.9-1.3,0.9c-1.7-0.2-3.2-0.9-4.4-2c-0.4-0.4-0.8-1.2-0.7-1.8c0.4-2.4,1-4.8,1.6-7.2
		c0.4-1.5,0.7-2.9,0-4.4c-0.6-1.4-0.3-2,1.2-2.4c1-0.3,0.9-1.2,1.2-1.8c1.3-4.2,2.6-8.4,3.9-12.6c0.3-0.9,0.6-1.8,0.9-2.7
		c0.5-1.3,1.2-1.6,2.5-1.1c1.4,0.7,2.8,1.5,4.2,2.3c0.9,0.5,1,1.4,0.6,2.4c-1.2,3.7-2.5,7.3-3.7,11C40.9,47.1,40.9,47.3,40.9,47.6z"
		/>
	<path class="st4" d="M111.1,44c0.1,2.3-1.1,4.1-2.5,5.7c-2.8,3.2-6.4,5.2-10.3,6.8c-1,0.4-2.2,0.7-3.2,1.2
		c-0.3,0.1-0.7,0.5-0.8,0.9c-0.8,2.6-1.6,5.1-2.3,7.7c-0.3,0.9-0.8,1.2-1.7,0.9c-0.9-0.3-1.8-0.6-2.5-1c-1.2-0.7-1.5-1.4-1.2-2.7
		c0.8-3.2,1.6-6.4,2.5-9.6c0.9-3.2,1.9-6.5,2.9-9.7c0.4-1.1-0.5-1.8-0.7-2.7c-0.1-0.2-0.2-0.4-0.3-0.7c-0.4-1.1-0.2-1.7,0.9-2.3
		c3.6-2,7.4-3.1,11.5-3.2c4,0,5.6,1.4,7.1,5.4c0.2,0.6,0.4,1.2,0.5,1.8C111.1,43,111.1,43.5,111.1,44z M96.9,50.6
		c0.1,0.1,0.2,0.1,0.2,0.2c1-0.5,2.1-1,3.1-1.6c2-1.3,3.9-2.8,4.9-5c0.7-1.4,0.3-2.4-1.4-2.2c-1.2,0.1-2.3,0.4-3.4,0.7
		c-0.5,0.2-0.8,0.7-1.1,1.2c-0.4,0.8-0.6,1.6-0.9,2.4C97.9,47.8,97.4,49.2,96.9,50.6z"/>
	<path class="st4" d="M89.6,43.4c0,2.6-0.8,4-1.9,5.4c-2.3,2.9-5.3,4.9-8.5,6.5c-1.8,0.9-3.8,1.5-5.7,2.4c-0.3,0.1-0.6,0.5-0.7,0.8
		c-0.7,2.2-1.4,4.4-2,6.5c-0.2,0.5-0.4,1.1-0.5,1.6c-0.2,0.7-0.7,0.9-1.2,0.7c-1.1-0.4-2.3-0.8-3.3-1.4c-0.7-0.4-1-1.2-0.8-2
		c0.5-2.3,1-4.6,1.7-6.8c0.8-2.9,1.6-5.7,2.5-8.5c0.4-1.3,0.7-2.6,1.2-3.9c0.4-1,0.1-1.7-0.3-2.5c-0.2-0.3-0.3-0.6-0.4-0.9
		c-0.6-1.8-0.5-2,1.1-2.8c3.8-1.9,7.9-3.1,12.2-2.9c2.9,0.2,4.6,1.9,5.6,4.4C89.2,41.2,89.4,42.7,89.6,43.4z M75.3,50.9
		c2.6-1,4.9-2.3,6.7-4.3c0.8-0.9,1.4-2,1.9-3.1c0.4-0.9-0.1-1.5-1.1-1.4c-1.3,0.1-2.7,0.4-4,0.7c-0.4,0.1-0.7,0.6-0.9,0.9
		c-0.3,0.6-0.5,1.3-0.7,1.9C76.5,47.3,75.9,49,75.3,50.9z"/>
	<path class="st4" d="M41.9,80.6c-1.2,0.2-2.2,0.4-3.3,0.6c-1.7,0.2-2.2,0-2.9-1.7c-0.4-0.9-0.8-1.9-1-2.9c-0.4-1.4-0.2-1.9,1.2-2.1
		c2.5-0.5,5-0.9,7.5-1.2c3.4-0.4,6.8-0.6,10.2-0.8c2.1-0.2,2.7,0.1,3.6,2c0.4,0.8,0.6,1.7,0.8,2.7c0.2,1.3,0,1.5-1.3,1.7
		c-1.6,0.2-3.1,0.4-4.7,0.4c-1,0-1.5,0.5-1.7,1.4c-1.3,3.9-2.6,7.8-3.8,11.7c-1.2,3.9-2.4,7.9-3.5,11.8c-0.4,1.3-0.8,2.7-1.2,4
		c-0.4,1.2-0.8,1.5-2,1.1c-1-0.3-1.9-0.7-2.8-1.2c-1.6-0.8-1.9-1.8-1.5-3.5c1.2-4.8,2.4-9.5,3.7-14.3c0.8-3.1,1.9-6.1,2.8-9.2
		C41.8,81,41.9,80.8,41.9,80.6z"/>
	<path class="st4" d="M60.9,101.7c2-0.2,3.8-0.4,5.6-0.6c1.1-0.1,1.7,0.1,2.1,1.2c0.3,0.9,0.6,1.8,0.8,2.8c0.2,1-0.1,1.4-1.1,1.7
		c-1.8,0.5-3.6,0.8-5.4,1.3c-1,0.2-2.1,0.5-3.1,0.7c-1.2,0.3-2.3,0.3-3.2-0.6c-0.7-0.8-1.6-1.6-2.1-2.5c-0.4-0.7-0.5-1.7-0.3-2.5
		c0.7-2.9,1.5-5.7,2.4-8.6c1-3.4,2.2-6.7,3.2-10.1c0.1-0.3,0-0.7-0.1-1c-0.3-0.9-0.6-1.9-0.9-2.8c-0.2-0.6-0.1-1.1,0.7-1.2
		c3.2-0.5,6.5-1.1,9.7-1.6c1.3-0.2,2.5-0.2,3.8-0.3c1.7-0.1,2.3,0.3,2.7,1.9c0.2,0.7,0.3,1.5,0.4,2.3c0.1,0.8-0.4,1.4-1.2,1.5
		c-2.2,0.3-4.3,0.6-6.5,0.8c-0.9,0.1-1.3,0.5-1.6,1.3c-0.5,1.6-1.2,3.2-1.7,4.8c-0.1,0.1-0.1,0.3-0.1,0.6c1-0.1,1.9-0.2,2.8-0.3
		c2.1-0.2,2.6,0.2,3.1,2.3c0.1,0.5,0.2,0.9,0.3,1.4c0.2,1.4-0.1,1.7-1.4,2c-2.1,0.5-4.2,1-6.3,1.3c-0.8,0.1-1.2,0.5-1.4,1.2
		C61.6,99.5,61.3,100.6,60.9,101.7z"/>
	<path class="st4" d="M79.4,101.7c2-0.2,3.8-0.4,5.6-0.6c1.1-0.1,1.7,0.1,2.1,1.2c0.3,0.9,0.6,1.8,0.8,2.8c0.2,1-0.1,1.4-1.1,1.7
		c-1.8,0.5-3.6,0.8-5.4,1.3c-1,0.2-2.1,0.5-3.1,0.7c-1.2,0.3-2.3,0.3-3.2-0.6c-0.7-0.8-1.6-1.6-2.1-2.5c-0.4-0.7-0.5-1.7-0.3-2.5
		c0.7-2.9,1.5-5.7,2.4-8.6c1-3.4,2.2-6.7,3.2-10.1c0.1-0.3,0-0.7-0.1-1c-0.3-0.9-0.6-1.9-0.9-2.8c-0.2-0.6-0.1-1.1,0.7-1.2
		c3.2-0.5,6.5-1.1,9.7-1.6c1.3-0.2,2.5-0.2,3.8-0.3c1.7-0.1,2.3,0.3,2.7,1.9c0.2,0.7,0.3,1.5,0.4,2.3c0.1,0.8-0.4,1.4-1.2,1.5
		c-2.2,0.3-4.3,0.6-6.5,0.8c-0.9,0.1-1.3,0.5-1.6,1.3c-0.5,1.6-1.2,3.2-1.7,4.8c-0.1,0.1-0.1,0.3-0.1,0.6c1-0.1,1.9-0.2,2.8-0.3
		c2.1-0.2,2.6,0.2,3.1,2.3c0.1,0.5,0.2,0.9,0.3,1.4c0.2,1.4-0.1,1.7-1.4,2c-2.1,0.5-4.2,1-6.3,1.3c-0.8,0.1-1.2,0.5-1.4,1.2
		C80.1,99.5,79.8,100.6,79.4,101.7z"/>
	<path class="st4" d="M53.8,63.8c0.4-1.6,0.7-3.2,1.1-4.8c0.8-3,1.6-6,2.4-9c0.6-2.2,1.3-4.5,2-6.7c0.6-2,1.3-3.9,1.9-5.9
		c0.4-1.4,1.2-1.9,2.6-1.3c1.2,0.6,2.3,1.2,3.3,1.9c0.7,0.5,0.9,1.2,0.6,2c-1,2.9-2,5.7-2.9,8.6c-0.8,2.6-1.6,5.2-2.4,7.8
		c-0.7,2.2-1.3,4.4-2,6.6c-0.3,0.9-0.6,1.9-0.8,2.8c-0.3,1.3-0.9,1.7-2.1,1.2c-0.8-0.3-1.6-0.7-2.4-1.1
		C54.2,65.5,53.8,64.8,53.8,63.8z"/>
	<path class="st4" d="M94.4,99.8c-0.7-0.5-0.7-1.3-0.5-2.1c0.8-2.6,1.5-5.3,2.3-7.9c1-3.1,2-6.1,3.1-9.2c0.4-1.2,0.8-2.4,1.2-3.6
		c0.5-1.2,1-1.5,2.2-1c1.2,0.5,2.3,1.1,3.3,1.7c0.8,0.5,1,1.3,0.7,2.3c-1.7,4.4-3.4,8.8-5,13.2c-0.9,2.3-1.6,4.7-2.4,7
		c-0.2,0.7-0.5,1.2-1.4,1.1"/>
	<path class="st4" d="M94.9,102.3c2.1,0,3.3,1.2,3.3,3.1c0,2.4-1.8,4.4-3.9,4.5c-1.9,0-3.3-1.4-3.3-3.4
		C91,104.5,92.6,102,94.9,102.3z"/>
	<path class="st0" d="M96.9,50.6c0.5-1.4,1-2.8,1.5-4.2c0.3-0.8,0.5-1.7,0.9-2.4c0.2-0.5,0.6-1.1,1.1-1.2c1.1-0.4,2.3-0.6,3.4-0.7
		c1.6-0.2,2,0.8,1.4,2.2c-1.1,2.2-2.9,3.7-4.9,5c-1,0.6-2.1,1.1-3.1,1.6C97.1,50.8,97,50.7,96.9,50.6z"/>
	<path class="st0" d="M75.3,50.9c0.7-1.9,1.2-3.6,1.8-5.3c0.2-0.6,0.4-1.3,0.7-1.9c0.2-0.4,0.5-0.8,0.9-0.9c1.3-0.3,2.6-0.6,4-0.7
		c0.9-0.1,1.5,0.6,1.1,1.4c-0.5,1.1-1.1,2.2-1.9,3.1C80.2,48.6,77.9,49.8,75.3,50.9z"/>
</g>
</svg>
