<?xml version="1.0" encoding="utf-8"?>
<!-- Generator: Adobe Illustrator 19.2.0, SVG Export Plug-In . SVG Version: 6.00 Build 0)  -->
<svg version="1.1" id="Layer_1" xmlns="http://www.w3.org/2000/svg" xmlns:xlink="http://www.w3.org/1999/xlink" x="0px" y="0px"
	 viewBox="0 0 140 140" style="enable-background:new 0 0 140 140;" xml:space="preserve">
<style type="text/css">
	.st0{opacity:0.32;}
	.st1{fill:#062F49;}
	.st2{fill:none;stroke:#FFFFFF;stroke-width:0.5;stroke-miterlimit:10;}
	.st3{fill:#CC3533;}
	.st4{fill:#EF3A2F;}
	.st5{fill:#FFFFFF;}
</style>
<g class="st0">
	<g>
		<circle class="st1" cx="67.4" cy="71.5" r="49.4"/>
		<circle class="st1" cx="67.4" cy="71.5" r="46.8"/>
		<path class="st1" d="M67.4,13.5c-32.1,0-58,26-58,58s26,58,58,58s58-26,58-58S99.5,13.5,67.4,13.5z M67.4,120
			C40.7,120,19,98.3,19,71.5s21.7-48.4,48.4-48.4s48.4,21.7,48.4,48.4S94.2,120,67.4,120z"/>
		<path class="st1" d="M67.4,9.4C33.1,9.4,5.3,37.2,5.3,71.5s27.8,62.2,62.2,62.2s62.2-27.8,62.2-62.2S101.8,9.4,67.4,9.4z
			 M67.4,123.4c-28.7,0-51.9-23.2-51.9-51.9s23.2-51.9,51.9-51.9s51.9,23.2,51.9,51.9S96.1,123.4,67.4,123.4z"/>
		<path class="st1" d="M67.4,5C30.7,5,0.9,34.8,0.9,71.5s29.8,66.6,66.6,66.6S134,108.3,134,71.5S104.2,5,67.4,5z M67.4,127.1
			c-30.7,0-55.6-24.9-55.6-55.6S36.7,16,67.4,16S123,40.8,123,71.5S98.1,127.1,67.4,127.1z"/>
	</g>
	<g>
		<circle class="st1" cx="67.4" cy="71.5" r="55.1"/>
		<circle class="st1" cx="67.4" cy="71.5" r="51.9"/>
		<path class="st1" d="M67.4,7C31.8,7,2.9,35.9,2.9,71.5s28.9,64.6,64.6,64.6S132,107.2,132,71.5S103.1,7,67.4,7z M67.4,125.4
			c-29.8,0-53.9-24.1-53.9-53.9s24.1-53.9,53.9-53.9s53.9,24.1,53.9,53.9S97.2,125.4,67.4,125.4z"/>
		<path class="st1" d="M67.4,5.9C31.2,5.9,1.8,35.3,1.8,71.5s29.4,65.6,65.6,65.6S133,107.7,133,71.5S103.7,5.9,67.4,5.9z M67.4,129
			C35.7,129,10,103.3,10,71.5S35.7,14,67.4,14s57.5,25.7,57.5,57.5S99.2,129,67.4,129z"/>
	</g>
</g>
<g>
	<g>
		<circle class="st1" cx="70.4" cy="69.1" r="49.4"/>
		<circle class="st1" cx="70.4" cy="69.1" r="46.8"/>
		<path class="st1" d="M70.4,11c-32.1,0-58,26-58,58s26,58,58,58s58-26,58-58S102.5,11,70.4,11z M70.4,117.5
			C43.7,117.5,22,95.8,22,69.1s21.7-48.4,48.4-48.4s48.4,21.7,48.4,48.4S97.2,117.5,70.4,117.5z"/>
		<path class="st1" d="M70.4,6.9C36.1,6.9,8.3,34.7,8.3,69.1s27.8,62.2,62.2,62.2s62.2-27.8,62.2-62.2S104.7,6.9,70.4,6.9z
			 M70.4,120.9c-28.7,0-51.9-23.2-51.9-51.9s23.2-51.9,51.9-51.9s51.9,23.2,51.9,51.9S99.1,120.9,70.4,120.9z"/>
		<path class="st1" d="M70.4,2.5C33.6,2.5,3.8,32.3,3.8,69.1s29.8,66.6,66.6,66.6S137,105.8,137,69.1S107.2,2.5,70.4,2.5z
			 M70.4,124.6c-30.7,0-55.6-24.9-55.6-55.6s24.9-55.6,55.6-55.6S126,38.4,126,69.1S101.1,124.6,70.4,124.6z"/>
	</g>
	<g>
		<circle class="st1" cx="70.4" cy="69.1" r="55.1"/>
		<circle class="st2" cx="70.4" cy="69.1" r="51.9"/>
		<path class="st3" d="M70.4,4.5C34.8,4.5,5.9,33.4,5.9,69.1s28.9,64.6,64.6,64.6S135,104.7,135,69.1S106.1,4.5,70.4,4.5z
			 M70.4,122.9c-29.8,0-53.9-24.1-53.9-53.9s24.1-53.9,53.9-53.9s53.9,24.1,53.9,53.9S100.2,122.9,70.4,122.9z"/>
		<path class="st4" d="M70.4,3.5C34.2,3.5,4.8,32.8,4.8,69.1s29.4,65.6,65.6,65.6S136,105.3,136,69.1S106.6,3.5,70.4,3.5z
			 M70.4,126.5c-31.7,0-57.5-25.7-57.5-57.5s25.7-57.5,57.5-57.5s57.5,25.7,57.5,57.5S102.1,126.5,70.4,126.5z"/>
	</g>
</g>
<g>
	<path class="st5" d="M18,69.1 M42,47.4c0.1-0.3,0.1-0.5,0.1-0.7c1.2-3.5,2.4-7,3.6-10.6c0.3-0.9,0.3-1.7-0.6-2.3
		c-1.3-0.8-2.6-1.6-4-2.2c-1.2-0.6-1.9-0.2-2.4,1c-0.3,0.9-0.6,1.7-0.9,2.6c-1.2,4-2.4,8.1-3.7,12.1c-0.2,0.6-0.1,1.5-1.1,1.7
		c-1.5,0.4-1.8,1-1.2,2.4c0.7,1.5,0.4,2.8,0,4.2c-0.6,2.3-1.1,4.6-1.6,7c-0.1,0.5,0.2,1.4,0.6,1.7c1.2,1.1,2.6,1.7,4.2,1.9
		c0.7,0.1,1.1-0.2,1.3-0.8c0.9-3.1,1.8-6.2,2.7-9.3c0.3-0.9,0.6-1.6,1.7-1.7c1.2-0.1,2.4-0.4,3.6-0.6c0.2,0,0.4,0,0.7,0
		c-0.1,0.6-0.3,1.1-0.4,1.6c-0.6,2.3-1.2,4.6-1.7,7c-0.2,1,0.1,2,1,2.5c1,0.5,2,1,3.1,1.3c1.4,0.4,1.7,0.1,2.1-1.4
		c0.7-2.7,1.6-5.3,2.4-7.9c0.8-2.6,1.6-5.3,2.5-7.9c0.8-2.5,1.6-4.9,2.4-7.4c0.7-2.1,1.5-4.3,2.2-6.4c0.3-0.8,0.1-1.5-0.6-2
		c-1.3-1.1-2.8-1.9-4.4-2.3c-0.9-0.2-1.5,0.1-1.8,0.9c-0.8,2.2-1.5,4.5-2.2,6.7c-0.8,2.6-1.6,5.2-2.5,7.8c-0.1,0.2-0.3,0.6-0.5,0.6
		C45.2,47.1,43.6,47.3,42,47.4z M109.7,43.9c0-0.5,0-1-0.1-1.4c-0.1-0.6-0.3-1.2-0.5-1.7c-1.4-3.8-3-5.2-6.9-5.2
		c-3.9,0-7.6,1.2-11.1,3.1c-1,0.6-1.2,1.1-0.8,2.2c0.1,0.2,0.2,0.4,0.3,0.7c0.2,0.9,1,1.5,0.7,2.6c-1,3.1-1.9,6.2-2.8,9.3
		c-0.9,3.1-1.7,6.1-2.5,9.2c-0.3,1.3,0,2,1.2,2.6c0.8,0.4,1.6,0.7,2.5,1c0.9,0.3,1.4,0,1.6-0.9c0.8-2.5,1.5-5,2.3-7.4
		c0.1-0.3,0.5-0.7,0.8-0.9c1-0.4,2.1-0.7,3.1-1.1c3.7-1.6,7.2-3.5,9.9-6.6C108.6,47.9,109.8,46.2,109.7,43.9z M89,43.3
		c-0.2-0.7-0.4-2.2-1-3.5c-1-2.4-2.6-4.1-5.4-4.2c-4.2-0.2-8.1,1-11.8,2.8c-1.6,0.8-1.6,1-1.1,2.7c0.1,0.3,0.3,0.6,0.4,0.9
		c0.4,0.8,0.7,1.5,0.3,2.4c-0.5,1.2-0.8,2.5-1.2,3.7c-0.8,2.7-1.6,5.5-2.4,8.2c-0.6,2.2-1.1,4.4-1.6,6.6c-0.2,0.8,0,1.6,0.8,2
		c1,0.5,2.1,1,3.2,1.3c0.5,0.2,1,0,1.2-0.7c0.1-0.5,0.3-1,0.5-1.5c0.7-2.1,1.3-4.2,2-6.3c0.1-0.3,0.4-0.6,0.7-0.7
		c1.8-0.8,3.7-1.4,5.5-2.3c3.1-1.5,6-3.5,8.2-6.3C88.2,47.2,88.9,45.8,89,43.3z M43,79.2c0,0.2,0,0.4-0.1,0.5
		c-0.9,3-1.9,5.9-2.7,8.9c-1.3,4.6-2.4,9.2-3.6,13.7c-0.4,1.6,0,2.5,1.5,3.3c0.9,0.5,1.8,0.8,2.7,1.1c1.1,0.4,1.6,0.1,1.9-1
		c0.4-1.3,0.7-2.6,1.1-3.9c1.1-3.8,2.2-7.6,3.4-11.4c1.2-3.8,2.5-7.5,3.7-11.3c0.3-0.9,0.7-1.3,1.7-1.3c1.5-0.1,3-0.2,4.5-0.4
		c1.3-0.1,1.5-0.3,1.3-1.6c-0.1-0.9-0.4-1.8-0.7-2.6c-0.8-1.8-1.4-2.1-3.4-1.9c-3.3,0.3-6.6,0.4-9.8,0.8c-2.4,0.3-4.8,0.7-7.2,1.2
		c-1.3,0.2-1.6,0.7-1.2,2c0.3,0.9,0.6,1.9,1,2.8c0.7,1.6,1.1,1.8,2.8,1.6C40.8,79.6,41.8,79.4,43,79.2z M61.3,99.5
		c0.4-1.1,0.7-2.1,1-3.1c0.2-0.7,0.6-1,1.4-1.1c2-0.3,4-0.8,6-1.2c1.3-0.3,1.5-0.6,1.4-1.9c-0.1-0.4-0.2-0.9-0.3-1.3
		c-0.4-2-0.9-2.4-2.9-2.2c-0.9,0.1-1.8,0.2-2.7,0.3c0.1-0.3,0.1-0.4,0.1-0.6c0.6-1.5,1.2-3,1.7-4.6c0.3-0.8,0.7-1.2,1.6-1.3
		c2.1-0.2,4.2-0.5,6.2-0.8c0.8-0.1,1.2-0.6,1.2-1.4c-0.1-0.7-0.2-1.5-0.4-2.2c-0.4-1.6-1-2-2.6-1.9c-1.2,0.1-2.5,0.1-3.7,0.3
		c-3.1,0.5-6.2,1-9.3,1.6c-0.7,0.1-0.8,0.6-0.7,1.2c0.3,0.9,0.6,1.8,0.9,2.7c0.1,0.3,0.1,0.7,0,0.9c-1,3.2-2.1,6.4-3.1,9.7
		c-0.8,2.7-1.6,5.5-2.3,8.3c-0.2,0.7,0,1.7,0.3,2.4c0.5,0.9,1.3,1.7,2,2.4c0.9,0.9,1.9,0.9,3.1,0.6c1-0.3,2-0.5,3-0.7
		c1.7-0.4,3.5-0.8,5.2-1.2c1-0.3,1.3-0.6,1.1-1.6c-0.2-0.9-0.4-1.8-0.7-2.7c-0.4-1-0.9-1.3-2-1.1C65,99.1,63.2,99.3,61.3,99.5z
		 M79.1,99.5c0.4-1.1,0.7-2.1,1-3.1c0.2-0.7,0.6-1,1.4-1.1c2-0.3,4-0.8,6-1.2c1.3-0.3,1.5-0.6,1.4-1.9c-0.1-0.4-0.2-0.9-0.3-1.3
		c-0.4-2-0.9-2.4-2.9-2.2c-0.9,0.1-1.8,0.2-2.7,0.3c0.1-0.3,0.1-0.4,0.1-0.6c0.6-1.5,1.2-3,1.7-4.6c0.3-0.8,0.7-1.2,1.6-1.3
		c2.1-0.2,4.2-0.5,6.2-0.8c0.8-0.1,1.2-0.6,1.2-1.4c-0.1-0.7-0.2-1.5-0.4-2.2c-0.4-1.6-1-2-2.6-1.9c-1.2,0.1-2.5,0.1-3.7,0.3
		c-3.1,0.5-6.2,1-9.3,1.6c-0.7,0.1-0.8,0.6-0.7,1.2c0.3,0.9,0.6,1.8,0.9,2.7c0.1,0.3,0.1,0.7,0,0.9c-1,3.2-2.1,6.4-3.1,9.7
		c-0.8,2.7-1.6,5.5-2.3,8.3c-0.2,0.7,0,1.7,0.3,2.4c0.5,0.9,1.3,1.7,2,2.4c0.9,0.9,1.9,0.9,3.1,0.6c1-0.3,2-0.5,3-0.7
		c1.7-0.4,3.5-0.8,5.2-1.2c1-0.3,1.3-0.6,1.1-1.6c-0.2-0.9-0.4-1.8-0.7-2.7c-0.4-1-0.9-1.3-2-1.1C82.8,99.1,81,99.3,79.1,99.5z
		 M54.4,63c0,1,0.4,1.6,1.2,2c0.8,0.4,1.5,0.8,2.3,1.1c1.2,0.4,1.8,0.1,2.1-1.1c0.2-0.9,0.5-1.8,0.8-2.7c0.6-2.1,1.3-4.2,1.9-6.3
		c0.8-2.5,1.5-5,2.3-7.5c0.9-2.8,1.9-5.5,2.8-8.3c0.3-0.8,0.1-1.5-0.6-1.9c-1-0.7-2.1-1.3-3.2-1.8c-1.3-0.6-2-0.2-2.5,1.2
		c-0.6,1.9-1.2,3.8-1.8,5.7c-0.7,2.1-1.3,4.3-1.9,6.4c-0.8,2.9-1.6,5.8-2.3,8.7C55.1,59.9,54.8,61.5,54.4,63z M97,99.1
		c0.8,0.1,1.1-0.4,1.3-1c0.8-2.2,1.5-4.5,2.3-6.7c1.6-4.3,3.2-8.5,4.9-12.7c0.3-0.9,0.2-1.7-0.6-2.2c-1-0.6-2.1-1.2-3.2-1.7
		c-1.2-0.5-1.7-0.2-2.1,1c-0.4,1.1-0.8,2.3-1.2,3.5c-1,3-2,5.9-2.9,8.9c-0.8,2.5-1.5,5.1-2.2,7.6c-0.2,0.7-0.3,1.6,0.5,2 M94,100.1
		c-2.2-0.2-3.7,2.1-3.7,4.1c0,1.9,1.3,3.3,3.2,3.2c2.1,0,3.8-1.9,3.8-4.3C97.2,101.2,96,100.1,94,100.1z"/>
	<path class="st5" d="M42,47.4c1.7-0.2,3.2-0.3,4.8-0.5c0.2,0,0.5-0.4,0.5-0.6c0.8-2.6,1.6-5.2,2.5-7.8c0.7-2.2,1.4-4.5,2.2-6.7
		c0.3-0.8,1-1.1,1.8-0.9c1.6,0.4,3.1,1.2,4.4,2.3c0.6,0.6,0.8,1.2,0.6,2c-0.7,2.1-1.5,4.3-2.2,6.4c-0.8,2.5-1.6,4.9-2.4,7.4
		c-0.8,2.6-1.7,5.3-2.5,7.9c-0.8,2.6-1.6,5.3-2.4,7.9c-0.4,1.4-0.7,1.8-2.1,1.4c-1.1-0.3-2.1-0.8-3.1-1.3c-1-0.5-1.2-1.5-1-2.5
		c0.5-2.3,1.1-4.6,1.7-7c0.1-0.5,0.2-1,0.4-1.6c-0.3,0-0.5-0.1-0.7,0c-1.2,0.2-2.4,0.5-3.6,0.6c-1.1,0.1-1.5,0.8-1.7,1.7
		c-0.9,3.1-1.8,6.2-2.7,9.3c-0.2,0.7-0.6,0.9-1.3,0.8c-1.6-0.2-3.1-0.8-4.2-1.9c-0.4-0.4-0.7-1.2-0.6-1.7c0.4-2.3,1-4.7,1.6-7
		c0.4-1.4,0.6-2.8,0-4.2c-0.6-1.3-0.3-1.9,1.2-2.4c1-0.3,0.9-1.1,1.1-1.7c1.3-4,2.5-8.1,3.7-12.1c0.3-0.9,0.5-1.8,0.9-2.6
		c0.5-1.3,1.2-1.6,2.4-1c1.4,0.7,2.7,1.4,4,2.2c0.9,0.5,0.9,1.4,0.6,2.3c-1.2,3.5-2.4,7-3.6,10.6C42.1,46.9,42,47.1,42,47.4z"/>
	<path class="st5" d="M109.7,43.9c0.1,2.2-1,3.9-2.4,5.5c-2.7,3-6.2,5-9.9,6.6c-1,0.4-2.1,0.7-3.1,1.1c-0.3,0.1-0.7,0.5-0.8,0.9
		c-0.8,2.5-1.5,5-2.3,7.4c-0.3,0.9-0.7,1.2-1.6,0.9c-0.8-0.3-1.7-0.6-2.5-1c-1.2-0.7-1.5-1.3-1.2-2.6c0.8-3.1,1.6-6.2,2.5-9.2
		c0.9-3.1,1.8-6.2,2.8-9.3c0.3-1.1-0.5-1.7-0.7-2.6c0-0.2-0.2-0.4-0.3-0.7c-0.4-1.1-0.2-1.6,0.8-2.2c3.5-1.9,7.1-3,11.1-3.1
		c3.8,0,5.4,1.3,6.9,5.2c0.2,0.6,0.4,1.1,0.5,1.7C109.7,43,109.6,43.5,109.7,43.9z M96,50.3c0.1,0.1,0.1,0.1,0.2,0.2
		c1-0.5,2-1,3-1.5c1.9-1.2,3.7-2.6,4.7-4.8c0.7-1.4,0.2-2.3-1.3-2.1c-1.1,0.1-2.2,0.3-3.3,0.7c-0.4,0.1-0.8,0.7-1,1.2
		c-0.4,0.7-0.6,1.5-0.9,2.3C96.9,47.6,96.4,48.9,96,50.3z"/>
	<path class="st5" d="M89,43.3c0,2.5-0.8,3.9-1.8,5.2c-2.2,2.8-5.1,4.8-8.2,6.3c-1.8,0.9-3.7,1.5-5.5,2.3c-0.3,0.1-0.6,0.4-0.7,0.7
		c-0.7,2.1-1.3,4.2-2,6.3c-0.2,0.5-0.4,1-0.5,1.5c-0.2,0.6-0.7,0.8-1.2,0.7C68.1,66,67,65.6,66,65c-0.7-0.4-0.9-1.2-0.8-2
		c0.5-2.2,1-4.4,1.6-6.6c0.7-2.8,1.6-5.5,2.4-8.2c0.4-1.3,0.7-2.5,1.2-3.7c0.4-0.9,0.1-1.6-0.3-2.4c-0.1-0.3-0.3-0.6-0.4-0.9
		c-0.5-1.7-0.5-2,1.1-2.7c3.7-1.8,7.6-3,11.8-2.8c2.8,0.1,4.4,1.8,5.4,4.2C88.5,41.2,88.8,42.6,89,43.3z M75.1,50.5
		c2.5-1,4.7-2.2,6.4-4.1c0.8-0.9,1.4-1.9,1.8-3c0.4-0.8-0.1-1.5-1.1-1.4c-1.3,0.1-2.6,0.4-3.8,0.7c-0.3,0.1-0.7,0.5-0.9,0.9
		c-0.3,0.6-0.5,1.2-0.7,1.8C76.3,47.1,75.8,48.7,75.1,50.5z"/>
	<path class="st5" d="M43,79.2c-1.1,0.2-2.2,0.4-3.2,0.6c-1.7,0.2-2.1,0-2.8-1.6c-0.4-0.9-0.7-1.8-1-2.8c-0.4-1.3-0.2-1.8,1.2-2
		c2.4-0.4,4.8-0.9,7.2-1.2c3.3-0.4,6.5-0.5,9.8-0.8c2-0.2,2.6,0.1,3.4,1.9c0.4,0.8,0.6,1.7,0.7,2.6c0.2,1.3,0,1.5-1.3,1.6
		c-1.5,0.2-3,0.4-4.5,0.4c-1,0-1.4,0.5-1.7,1.3c-1.2,3.8-2.5,7.5-3.7,11.3c-1.2,3.8-2.3,7.6-3.4,11.4c-0.4,1.3-0.7,2.6-1.1,3.9
		c-0.3,1.2-0.8,1.4-1.9,1c-0.9-0.3-1.8-0.7-2.7-1.1c-1.5-0.8-1.9-1.7-1.5-3.3c1.2-4.6,2.3-9.2,3.6-13.7c0.8-3,1.8-5.9,2.7-8.9
		C42.9,79.5,42.9,79.4,43,79.2z"/>
	<path class="st5" d="M61.3,99.5c1.9-0.2,3.7-0.4,5.4-0.6c1.1-0.1,1.6,0.1,2,1.1c0.3,0.9,0.6,1.8,0.7,2.7c0.2,1-0.1,1.4-1.1,1.6
		c-1.7,0.4-3.5,0.8-5.2,1.2c-1,0.2-2,0.5-3,0.7c-1.1,0.3-2.2,0.3-3.1-0.6c-0.7-0.8-1.5-1.5-2-2.4c-0.4-0.7-0.5-1.7-0.3-2.4
		c0.7-2.8,1.5-5.5,2.3-8.3c1-3.2,2.1-6.5,3.1-9.7c0.1-0.3,0-0.6,0-0.9c-0.3-0.9-0.6-1.8-0.9-2.7c-0.2-0.6-0.1-1.1,0.7-1.2
		c3.1-0.5,6.2-1.1,9.3-1.6c1.2-0.2,2.4-0.2,3.7-0.3c1.6-0.1,2.2,0.3,2.6,1.9c0.2,0.7,0.3,1.5,0.4,2.2c0.1,0.8-0.3,1.3-1.2,1.4
		c-2.1,0.3-4.1,0.6-6.2,0.8c-0.9,0.1-1.3,0.4-1.6,1.3c-0.5,1.6-1.1,3.1-1.7,4.6c0,0.1-0.1,0.3-0.1,0.6c1-0.1,1.8-0.2,2.7-0.3
		c2-0.2,2.5,0.2,2.9,2.2c0.1,0.4,0.2,0.9,0.3,1.3c0.2,1.3-0.1,1.6-1.4,1.9c-2,0.4-4,0.9-6,1.2c-0.8,0.1-1.2,0.5-1.4,1.1
		C62,97.4,61.7,98.4,61.3,99.5z"/>
	<path class="st5" d="M79.1,99.5c1.9-0.2,3.7-0.4,5.4-0.6c1.1-0.1,1.6,0.1,2,1.1c0.3,0.9,0.6,1.8,0.7,2.7c0.2,1-0.1,1.4-1.1,1.6
		c-1.7,0.4-3.5,0.8-5.2,1.2c-1,0.2-2,0.5-3,0.7c-1.1,0.3-2.2,0.3-3.1-0.6c-0.7-0.8-1.5-1.5-2-2.4c-0.4-0.7-0.5-1.7-0.3-2.4
		c0.7-2.8,1.5-5.5,2.3-8.3c1-3.2,2.1-6.5,3.1-9.7c0.1-0.3,0-0.6,0-0.9c-0.3-0.9-0.6-1.8-0.9-2.7c-0.2-0.6-0.1-1.1,0.7-1.2
		c3.1-0.5,6.2-1.1,9.3-1.6c1.2-0.2,2.4-0.2,3.7-0.3c1.6-0.1,2.2,0.3,2.6,1.9c0.2,0.7,0.3,1.5,0.4,2.2c0.1,0.8-0.3,1.3-1.2,1.4
		c-2.1,0.3-4.1,0.6-6.2,0.8c-0.9,0.1-1.3,0.4-1.6,1.3c-0.5,1.6-1.1,3.1-1.7,4.6c0,0.1-0.1,0.3-0.1,0.6c1-0.1,1.8-0.2,2.7-0.3
		c2-0.2,2.5,0.2,2.9,2.2c0.1,0.4,0.2,0.9,0.3,1.3c0.2,1.3-0.1,1.6-1.4,1.9c-2,0.4-4,0.9-6,1.2c-0.8,0.1-1.2,0.5-1.4,1.1
		C79.8,97.4,79.5,98.4,79.1,99.5z"/>
	<path class="st5" d="M54.4,63c0.4-1.5,0.7-3.1,1.1-4.6c0.8-2.9,1.5-5.8,2.3-8.7c0.6-2.2,1.2-4.3,1.9-6.4c0.6-1.9,1.2-3.8,1.8-5.7
		c0.4-1.4,1.2-1.8,2.5-1.2c1.1,0.5,2.2,1.2,3.2,1.8c0.7,0.4,0.8,1.1,0.6,1.9c-0.9,2.8-1.9,5.5-2.8,8.3c-0.8,2.5-1.6,5-2.3,7.5
		c-0.6,2.1-1.3,4.2-1.9,6.3c-0.3,0.9-0.5,1.8-0.8,2.7c-0.3,1.2-0.9,1.6-2.1,1.1c-0.8-0.3-1.6-0.7-2.3-1.1
		C54.8,64.6,54.4,63.9,54.4,63z"/>
	<path class="st5" d="M93.6,97.7c-0.7-0.4-0.7-1.3-0.5-2c0.7-2.5,1.4-5.1,2.2-7.6c0.9-3,2-5.9,2.9-8.9c0.4-1.2,0.8-2.3,1.2-3.5
		c0.4-1.2,1-1.4,2.1-1c1.1,0.5,2.2,1,3.2,1.7c0.8,0.5,1,1.3,0.6,2.2c-1.6,4.2-3.3,8.5-4.9,12.7c-0.8,2.2-1.6,4.5-2.3,6.7
		c-0.2,0.6-0.5,1.2-1.3,1"/>
	<path class="st5" d="M94,100.1c2,0,3.2,1.1,3.2,3c0,2.4-1.7,4.3-3.8,4.3c-1.8,0-3.2-1.4-3.2-3.2C90.3,102.2,91.9,99.8,94,100.1z"/>
	<path class="st1" d="M96,50.3c0.5-1.4,1-2.7,1.4-4.1c0.3-0.8,0.5-1.6,0.9-2.3c0.2-0.5,0.6-1,1-1.2c1.1-0.4,2.2-0.6,3.3-0.7
		c1.6-0.2,2,0.8,1.3,2.1c-1,2.1-2.8,3.6-4.7,4.8c-0.9,0.6-2,1-3,1.5C96.1,50.4,96,50.4,96,50.3z"/>
	<path class="st1" d="M75.1,50.5c0.6-1.8,1.2-3.5,1.8-5.1c0.2-0.6,0.4-1.3,0.7-1.8c0.2-0.4,0.5-0.8,0.9-0.9c1.3-0.3,2.5-0.6,3.8-0.7
		c0.9-0.1,1.4,0.6,1.1,1.4c-0.5,1.1-1.1,2.1-1.8,3C79.9,48.3,77.7,49.6,75.1,50.5z"/>
</g>
</svg>
