<?xml version="1.0" encoding="utf-8"?>
<!-- Generator: Adobe Illustrator 19.2.0, SVG Export Plug-In . SVG Version: 6.00 Build 0)  -->
<svg version="1.1" id="Layer_1" xmlns="http://www.w3.org/2000/svg" xmlns:xlink="http://www.w3.org/1999/xlink" x="0px" y="0px"
	 viewBox="0 0 491.5 491.5" style="enable-background:new 0 0 491.5 491.5;" xml:space="preserve">
<style type="text/css">
	.st0{fill:#FFFFFF;stroke:#000000;stroke-miterlimit:10;}
	.st1{fill:none;stroke:#000000;stroke-width:6;stroke-miterlimit:10;}
</style>
<g id="Layer_x0020_1_2_">
	<path class="st0" d="M-393.3-66.1h30.3v-38.5c0-0.1,0-0.2,0-0.3c0.6-11.8,3-22.5,8.5-30.4c5.7-8.1,14.6-13.2,28.1-13.2h48.5
		c1.5,0,2.7,1.2,2.7,2.7v38.8c0,1.5-1.2,2.7-2.7,2.7h-19.1c-4.9,0-8.6,0.8-11,2.7l-1.7-2.1l1.7,2.1c-0.1,0-0.1,0.1-0.2,0.1
		c-2.2,1.9-3.5,5.2-3.8,10.2h0v25.1h34.1c1.5,0,2.7,1.2,2.7,2.7v41.2c0,1.5-1.2,2.7-2.7,2.7H-312v120.9c0,1.5-1.2,2.7-2.7,2.7h-45.6
		c-1.5,0-2.7-1.2-2.7-2.7V-19.5h-30.3c-1.5,0-2.7-1.2-2.7-2.7v-41.2C-396-64.9-394.8-66.1-393.3-66.1L-393.3-66.1z M-360.3-60.7
		h-30.3v35.8h30.3c1.5,0,2.7,1.2,2.7,2.7V98.7h40.2V-22.2c0-1.5,1.2-2.7,2.7-2.7h34.1v-35.8h-34.1c-1.5,0-2.7-1.2-2.7-2.7v-27.8v0
		c0,0,0-0.1,0-0.1l0,0c0.3-6.7,2.2-11.2,5.7-14.2c0.1-0.1,0.1-0.1,0.2-0.2l0,0c3.5-2.9,8.3-4,14.5-4h16.5v-33.4h-45.8
		c-11.5,0-18.9,4.1-23.7,10.9c-4.9,6.9-7,16.7-7.6,27.6l0,0.1v41.2C-357.6-61.9-358.8-60.7-360.3-60.7L-360.3-60.7z"/>
</g>
<path class="st1" d="M245.8,14.1c-122.6,0-222,99.4-222,222c0,61.3,24.9,116.9,65.1,157.1c22.5-2.7,49.4-10.9,68.9-32.8
	c-31.9-0.9-59.5-22.4-68.1-53.1c0,0,19.5,4.3,31.2-1.1C85.5,297.7,61.2,265.3,63,229c0,0,15.7,11.8,30.4,9.7
	c0,0-52.8-45.6-20.1-102.5c0,0,70.8,84.9,158.5,79.9c-1.6-6.2-2.4-12.6-2.4-19c-0.3-41.8,33.3-76,75.1-76.5
	c20.3,0,39.7,8.2,53.8,22.8c18.5,0.2,36.6-5.7,51.6-16.7c0,0,0.9,16.4-31.4,41.7c0,0,30.1-2.4,42.1-11.6c0,0-2.9,10.5-39,43.8
	c0,0,12.2,179.5-173.4,223.5c0,0-35.1,7.6-77.8,1.7c33.6,20.5,73.1,32.2,115.3,32.2c122.6,0,222-99.4,222-222S368.4,14.1,245.8,14.1
	z"/>
</svg>
